HIERARCHY
ROOT hip
{
	OFFSET 0.000000 0.000000 0.000000 
	CHANNELS 6 Xposition Yposition Zposition Xrotation Zrotation Yrotation
	JOINT abdomen
	{
		OFFSET 0.000000 3.402643 0.000000 
		CHANNELS 3 Xrotation Zrotation Yrotation
		JOINT chest
		{
			OFFSET 0.000000 8.438565 -0.680529 
			CHANNELS 3 Xrotation Zrotation Yrotation
			JOINT neck
			{
				OFFSET 0.000000 10.207942 -0.272212 
				CHANNELS 3 Xrotation Zrotation Yrotation
				JOINT head
				{
					OFFSET 0.000000 3.130431 0.000000 
					CHANNELS 3 Xrotation Zrotation Yrotation
					End Site
					{
						OFFSET 0.000000 3.130435 0.000000 
					}
				}
			}
			JOINT lCollar
			{
				OFFSET 3.470700 6.669187 -0.816635 
				CHANNELS 3 Yrotation Zrotation Xrotation
				JOINT lShldr
				{
					OFFSET 3.198488 0.000000 0.000000 
					CHANNELS 3 Zrotation Yrotation Xrotation
					JOINT lForeArm
					{
						OFFSET 10.139888 0.000000 0.000000 
						CHANNELS 3 Yrotation Zrotation Xrotation
						JOINT lHand
						{
							OFFSET 8.370511 0.000000 0.000000 
							CHANNELS 3 Zrotation Yrotation Xrotation
							End Site
							{
								OFFSET 4.083176 0.000000 0.000000 
							}
						}
					}
				}
			}
			JOINT rCollar
			{
				OFFSET -3.470700 6.669187 -0.816635 
				CHANNELS 3 Yrotation Zrotation Xrotation
				JOINT rShldr
				{
					OFFSET -3.198488 0.000000 0.000000 
					CHANNELS 3 Zrotation Yrotation Xrotation
					JOINT rForeArm
					{
						OFFSET -10.139888 0.000000 0.000000 
						CHANNELS 3 Yrotation Zrotation Xrotation
						JOINT rHand
						{
							OFFSET -8.370511 0.000000 0.000000 
							CHANNELS 3 Zrotation Yrotation Xrotation
							End Site
							{
								OFFSET -4.083176 0.000000 0.000000 
							}
						}
					}
				}
			}
		}
	}
	JOINT lThigh
	{
		OFFSET 5.308129 -1.633274 1.361059 
		CHANNELS 3 Xrotation Zrotation Yrotation
		JOINT lShin
		{
			OFFSET -2.041588 -20.007561 0.000000 
			CHANNELS 3 Xrotation Zrotation Yrotation
			JOINT lFoot
			{
				OFFSET 0.000000 -19.190928 -1.224953 
				CHANNELS 3 Xrotation Yrotation Zrotation
				End Site
				{
					OFFSET 0.000000 -2.449906 4.627600 
				}
			}
		}
	}
	JOINT rThigh
	{
		OFFSET -5.308129 -1.633274 1.361059 
		CHANNELS 3 Xrotation Zrotation Yrotation
		JOINT rShin
		{
			OFFSET 2.041588 -20.007561 0.000000 
			CHANNELS 3 Xrotation Zrotation Yrotation
			JOINT rFoot
			{
				OFFSET 0.000000 -19.190928 -1.224953 
				CHANNELS 3 Xrotation Yrotation Zrotation
				End Site
				{
					OFFSET 0.000000 -2.449906 4.627600 
				}
			}
		}
	}
}
MOTION
Frames: 16
Frame Time: 0.033333
9.488841 40.774719 106.968658 4.942060 -3.716639 -35.321739 34.469135 3.418912 -1.751619 -20.839844 0.000000 0.000000 -20.142944 14.610183 4.387847 -2.520832 -1.255077 0.218355 -4.754609 -0.109182 -0.002653 -40.354851 5.783450 -9.591044 -67.780174 -15.280962 4.575648 4.283228 10.743423 -2.537727 4.754609 0.109182 -0.002672 69.351799 -14.553145 -16.261290 70.818039 2.044426 14.636704 5.894856 -18.628214 19.022568 -31.728268 15.005432 -2.681601 53.811596 5.458598 -11.821355 -22.580969 -2.052652 -14.164428 -28.041435 -13.659085 -6.376376 58.045155 5.652799 0.618516 -11.130557 -3.532096 16.062849 
9.864573 40.222885 106.616837 6.984197 -3.286036 -33.664505 35.101532 4.586209 -1.429114 -20.839844 0.000000 0.000000 -23.829418 13.804418 -0.136559 -2.520832 -1.255077 0.218355 -4.754609 -0.109182 -0.002653 -51.326115 -0.504192 -3.136674 -59.935818 -18.331635 9.586250 2.763732 10.146973 -1.587354 4.754609 0.109182 -0.002672 76.958855 -12.635297 -11.441094 70.972839 6.020037 19.152710 8.640350 -16.219364 23.391319 -36.546513 15.602958 -2.674226 56.150372 5.325264 -12.115883 -23.242540 -3.553501 -12.417543 -32.954185 -14.919421 -6.174703 63.141888 5.370950 2.209837 -8.618775 -1.887854 18.050137 
10.188457 39.895424 106.246719 8.224066 -2.976937 -30.147287 35.157341 5.045080 -1.518513 -20.839844 0.000000 0.000000 -26.595205 13.178242 -7.208036 -2.520832 -1.255077 0.218355 -4.754609 -0.109182 -0.002653 -60.199287 -4.854484 4.024236 -51.455124 -21.238008 14.868365 2.407142 11.124957 -2.524390 4.754609 0.109182 -0.002672 84.302246 -11.935327 -6.954100 70.610725 9.976381 23.976534 11.167183 -14.152380 28.230087 -40.704998 15.544177 -2.659320 57.270821 4.817943 -13.251198 -22.045774 -6.238516 -11.719219 -34.322697 -17.185503 -6.438341 67.735336 4.901652 2.575049 -8.055326 -2.178539 19.285877 
10.419961 39.818260 105.827362 8.477141 -2.820459 -26.602283 35.072834 4.275133 -0.343295 -20.839844 0.000000 0.000000 -28.504143 11.992412 -16.097984 -2.520832 -1.255077 0.218355 -4.754609 -0.109182 -0.002653 -67.437767 -5.486740 9.588122 -46.993080 -23.800995 18.574430 4.274240 12.481112 -3.646648 4.754609 0.109182 -0.002672 89.647812 -11.496678 -2.433414 69.519310 14.412901 28.240860 12.132071 -12.303012 31.862864 -43.001972 15.711004 -1.969029 56.997429 3.529059 -14.477630 -19.919535 -9.492687 -10.813637 -31.532450 -18.905758 -6.884510 71.251671 4.091208 1.466315 -8.502078 -4.625212 19.176985 
10.542275 39.868523 105.331863 8.122804 -2.465282 -23.340126 34.725174 2.562174 2.651066 -20.839844 0.000000 0.000000 -30.081324 9.467195 -26.109652 -2.520832 -1.255077 0.218355 -4.754609 -0.109182 -0.002653 -72.576530 -3.662009 13.020878 -45.392693 -26.298882 20.507456 6.316037 12.197617 -5.033408 4.754609 0.109182 -0.002672 92.479149 -10.334964 1.879500 68.282768 18.495144 31.282112 11.452328 -10.171936 33.799473 -44.012169 15.439229 -1.118322 56.007648 2.055252 -15.262351 -17.632050 -12.234361 -9.153034 -25.370649 -19.814043 -8.016263 72.528549 3.828183 -0.102698 -7.778301 -6.918030 17.505733 
10.595651 39.941628 104.791679 7.397768 -2.140256 -19.408852 33.889313 1.132148 6.364869 -20.839844 0.000000 0.000000 -30.995012 5.570039 -35.986965 -2.520832 -1.255077 0.218355 -4.754609 -0.109182 -0.002653 -75.582542 0.267955 13.890835 -45.590164 -28.288969 22.685966 6.617964 10.333741 -3.851524 4.754609 0.109182 -0.002672 93.316124 -9.054422 5.250513 68.808846 21.945162 31.957991 9.713785 -8.855467 33.490650 -44.454758 13.454712 -1.380959 54.614716 1.791308 -15.776345 -15.633515 -13.386523 -8.326807 -16.453476 -20.201935 -10.568077 70.439476 5.213495 -1.315108 -5.140789 -7.356735 15.559918 
10.645883 40.007614 104.220543 6.126509 -1.922559 -15.245597 33.138279 0.496508 9.476700 -20.839844 0.000000 0.000000 -31.019749 1.307553 -43.738094 -2.520832 -1.255077 0.218355 -4.754609 -0.109182 -0.002653 -77.081512 5.720895 11.764785 -47.969612 -28.825054 24.750530 6.087521 7.877315 1.096393 4.754609 0.109182 -0.002672 92.200508 -8.035868 7.627609 71.837784 25.313059 29.873051 8.588532 -8.663654 30.897085 -44.165745 10.438500 -2.426116 53.131176 2.319017 -16.080050 -14.006462 -13.263091 -8.066710 -6.103397 -19.655403 -13.907807 65.139046 7.772652 -2.862973 -2.878050 -7.061728 14.144446 
10.736734 40.105606 103.626030 4.407002 -2.005776 -12.234875 32.946331 0.553203 11.775775 -20.839844 0.000000 0.000000 -30.686991 -1.939990 -48.797050 -2.520832 -1.255077 0.218355 -4.754609 -0.109182 -0.002653 -77.737122 11.039728 7.477262 -52.866558 -27.789001 22.893970 4.702981 7.149834 4.280694 4.754609 0.109182 -0.002672 89.980103 -6.951307 9.136316 76.198311 27.979229 26.317621 8.728318 -9.195925 27.666784 -43.018597 8.631092 -2.887141 51.740570 2.423068 -16.257694 -12.477061 -13.378891 -7.493361 3.485697 -17.645321 -16.179718 57.562172 10.101612 -5.862504 -2.975741 -7.968235 13.394360 
10.845900 40.227959 103.016335 2.609530 -2.302300 -11.120834 33.196545 1.006298 13.135768 -20.839844 0.000000 0.000000 -30.512217 -3.453842 -51.118904 -2.520832 -1.255077 0.218355 -4.754609 -0.109182 -0.002653 -77.739807 14.686739 2.614253 -58.908279 -25.265310 16.662384 2.875435 9.023946 2.542824 4.754609 0.109182 -0.002672 87.439133 -5.628822 9.976086 80.302368 29.501396 23.202765 9.202033 -9.720744 25.588049 -41.422039 8.446596 -2.680062 50.498524 2.027621 -16.307541 -11.177653 -13.783766 -7.113776 10.946747 -15.215165 -16.946844 49.220264 11.241778 -9.569986 -5.080256 -9.983685 14.300632 
10.944899 40.289383 102.330940 1.377904 -2.128291 -12.463616 33.123688 0.932257 13.284144 -20.839844 0.000000 0.000000 -29.904259 -3.238211 -50.230625 -2.520832 -1.255077 0.218355 -4.754609 -0.109182 -0.002653 -76.470787 16.034561 -1.469743 -64.076256 -21.921190 10.713519 2.736147 11.027353 0.039394 4.754609 0.109182 -0.002672 84.912529 -4.560943 10.351404 83.901871 30.458878 20.904118 8.752636 -9.904231 24.772409 -40.137844 9.021579 -2.138525 49.349968 1.447473 -15.819556 -10.293960 -13.487228 -7.332326 15.016541 -14.158721 -17.047855 42.740055 11.010317 -11.958976 -8.750043 -11.882591 16.451611 
11.020552 40.235580 101.480606 0.634954 -1.396399 -16.431725 32.436565 0.026082 12.638935 -20.839844 0.000000 0.000000 -28.183207 -1.945035 -46.082176 -2.520832 -1.255077 0.218355 -4.754609 -0.109182 -0.002653 -72.987923 15.219712 -3.968632 -68.098549 -19.195263 7.575024 4.884182 12.466646 -0.161240 4.754609 0.109182 -0.002672 82.876068 -4.719589 9.899398 87.974861 30.840466 18.470961 7.812798 -9.966243 24.328026 -39.362747 10.214160 -1.265476 48.626526 0.717577 -14.603653 -9.902980 -12.369350 -7.925834 15.623701 -15.302711 -17.464357 40.005314 10.111320 -12.226839 -13.028521 -13.271773 17.543739 
11.074842 40.075142 100.455093 0.039065 -0.644531 -22.393127 31.797714 -0.716099 11.508003 -20.839844 0.000000 0.000000 -26.096666 -0.561333 -38.700829 -2.520832 -1.255077 0.218355 -4.754609 -0.109182 -0.002653 -67.849022 12.690351 -5.661436 -71.548889 -16.805479 5.830974 7.063049 13.791708 0.625969 4.754609 0.109182 -0.002672 80.075958 -5.694366 8.836999 93.610710 31.022869 14.696859 6.702823 -10.091009 23.152428 -38.768032 11.962724 -0.472443 48.421471 0.261435 -12.944360 -10.014380 -10.252817 -9.022420 13.763141 -18.042383 -18.492407 40.696133 9.270352 -10.843547 -17.505556 -13.303339 16.455238 
11.127668 39.852783 99.318390 -0.771494 -0.283177 -29.986420 31.775440 -1.067188 9.933535 -20.839844 0.000000 0.000000 -23.948584 1.277694 -28.580975 -2.520832 -1.255077 0.218355 -4.754609 -0.109182 -0.002653 -61.524452 10.077028 -7.655857 -75.293228 -14.455964 4.277236 8.368792 14.522053 1.216175 4.754609 0.109182 -0.002672 75.965210 -6.563696 7.522535 100.810387 30.746346 9.536803 5.519946 -10.596654 21.084242 -37.629215 14.118279 0.032349 48.475121 0.445711 -10.945292 -10.331927 -6.858142 -11.083193 10.688004 -21.624964 -19.493042 43.167656 8.257875 -7.648401 -22.263752 -11.112843 14.223812 
11.185011 39.623302 98.156319 -1.611369 -0.409994 -39.187687 32.028378 -1.361781 8.371134 -20.839844 0.000000 0.000000 -21.258545 3.693876 -16.403990 -2.520832 -1.255077 0.218355 -4.754609 -0.109182 -0.002653 -54.278381 8.442724 -10.011538 -79.012077 -12.401471 3.480510 9.505737 14.372745 2.240580 4.754609 0.109182 -0.002672 71.208611 -6.968893 5.750722 107.866524 29.213221 4.472970 4.035311 -11.378968 18.660885 -35.538197 16.988028 0.599243 48.490448 0.952912 -8.679415 -10.350807 -2.510949 -14.489039 6.177109 -24.690453 -18.432566 45.983330 6.117781 -2.996456 -26.613234 -8.236970 13.491400 
11.263714 39.484203 97.083061 -2.158309 -0.566005 -49.050934 32.082317 -1.663395 6.430295 -20.839844 0.000000 0.000000 -18.223291 6.313770 -3.343170 -2.520832 -1.255077 0.218355 -4.754609 -0.109182 -0.002653 -46.608582 7.823095 -12.409642 -82.764565 -10.810082 3.310786 10.691745 14.403091 3.711114 4.754609 0.109182 -0.002672 66.538696 -6.891350 3.562606 112.902573 26.745541 0.507405 0.829376 -12.623829 15.751275 -32.709732 20.172571 1.513092 48.163589 1.356670 -6.494348 -9.554000 1.734471 -19.560627 0.253247 -26.640663 -15.616718 48.358212 3.399692 1.649548 -29.538839 -5.453278 13.805508 
11.368786 39.499935 96.197182 -2.568512 -0.624372 -58.389961 32.168354 -2.065705 4.220742 -20.839844 0.000000 0.000000 -15.246871 8.484064 9.053187 -2.520832 -1.255077 0.218355 -4.754609 -0.109182 -0.002653 -39.913231 6.846134 -14.383060 -86.784943 -9.526335 3.623569 11.923470 15.040988 5.650918 4.754609 0.109182 -0.002672 62.655067 -7.527308 0.486562 115.732544 23.404289 -2.389415 -3.689133 -14.160274 12.048306 -29.578531 22.889399 2.542600 47.900372 1.772999 -5.197101 -8.247051 4.511642 -24.519226 -5.635322 -28.126188 -13.371318 50.031544 1.626078 5.421977 -30.539274 -1.763339 13.094358 
